<svg width="1600" height="1200" viewBox="0 0 1600 1200" fill="none" xmlns="http://www.w3.org/2000/svg">
<rect width="1600" height="1200" rx="64" fill="#F6EFE8"/>
<rect width="1600" height="1200" rx="64" fill="url(#paint0_linear_279_10)"/>
<circle cx="1282" cy="234" r="232" fill="#F0A24E" fill-opacity="0.28"/>
<circle cx="317" cy="996" r="286" fill="#A94B2A" fill-opacity="0.16"/>
<path d="M0 1048C188.495 875.721 386.026 776.406 592.593 750.056C799.16 723.706 1134.96 819.041 1600 1036.06V1200H0V1048Z" fill="#1F140F" fill-opacity="0.08"/>
<rect x="84" y="88" width="462" height="484" rx="44" fill="white" fill-opacity="0.48" stroke="#4C2B1B" stroke-opacity="0.1"/>
<rect x="1090" y="168" width="396" height="436" rx="44" fill="#1E140F" fill-opacity="0.88"/>
<rect x="1090" y="642" width="396" height="406" rx="44" fill="white" fill-opacity="0.28" stroke="#4C2B1B" stroke-opacity="0.12"/>
<text x="118" y="168" fill="#8A563C" font-size="28" font-family="Arial, sans-serif" letter-spacing="8">BASKETBALL DROP</text>
<text x="118" y="252" fill="#1E140F" font-size="114" font-family="Arial, sans-serif" font-weight="700">Fast visuals.</text>
<text x="118" y="340" fill="#1E140F" font-size="114" font-family="Arial, sans-serif" font-weight="700">Short copy.</text>
<text x="118" y="414" fill="#5F483B" font-size="34" font-family="Arial, sans-serif">Keep the path to order clear and immediate.</text>
<g opacity="0.95">
<rect x="246" y="394" width="126" height="264" rx="32" fill="#1D5AA2"/>
<rect x="202" y="418" width="58" height="98" rx="18" transform="rotate(-16 202 418)" fill="#D4A846"/>
<rect x="358" y="418" width="58" height="98" rx="18" transform="rotate(16 358 418)" fill="#D4A846"/>
<path d="M274 648H342V806C342 823.673 327.673 838 310 838H306C288.327 838 274 823.673 274 806V648Z" fill="#D4A846"/>
<text x="309" y="554" fill="white" font-size="84" font-family="Arial, sans-serif" font-weight="700" text-anchor="middle">00</text>
</g>
<g opacity="0.95">
<rect x="1184" y="278" width="214" height="264" rx="40" fill="#F1E3D8" fill-opacity="0.08" stroke="white" stroke-opacity="0.22"/>
<rect x="1230" y="324" width="122" height="112" rx="28" fill="#D65D35"/>
<rect x="1196" y="344" width="44" height="74" rx="18" transform="rotate(-15 1196 344)" fill="#F1C096"/>
<rect x="1346" y="344" width="44" height="74" rx="18" transform="rotate(15 1346 344)" fill="#F1C096"/>
<path d="M1254 432H1328V544H1254V432Z" fill="#F1C096"/>
<text x="1291" y="396" fill="white" font-size="64" font-family="Arial, sans-serif" font-weight="700" text-anchor="middle">23</text>
</g>
<text x="1130" y="742" fill="#8A563C" font-size="26" font-family="Arial, sans-serif" letter-spacing="7">QUICK CTA</text>
<text x="1130" y="816" fill="#1E140F" font-size="74" font-family="Arial, sans-serif" font-weight="700">Shop</text>
<text x="1130" y="884" fill="#1E140F" font-size="74" font-family="Arial, sans-serif" font-weight="700">Add to cart</text>
<text x="1130" y="952" fill="#1E140F" font-size="74" font-family="Arial, sans-serif" font-weight="700">Checkout</text>
<text x="112" y="1032" fill="#6A5346" font-size="26" font-family="Arial, sans-serif" letter-spacing="6">MINIMAL   /   MODERN   /   DIRECT ORDERING</text>
<defs>
<linearGradient id="paint0_linear_279_10" x1="92" y1="86" x2="1414" y2="1128" gradientUnits="userSpaceOnUse">
<stop stop-color="#FFF7F0"/>
<stop offset="0.46" stop-color="#F2E3D8"/>
<stop offset="1" stop-color="#E8D2C4"/>
</linearGradient>
</defs>
</svg>
