<svg width="1600" height="980" viewBox="0 0 1600 980" fill="none" xmlns="http://www.w3.org/2000/svg">
<rect width="1600" height="980" rx="48" fill="#EEF1F5"/>
<rect x="0" y="0" width="1600" height="980" rx="48" fill="url(#paint0_linear_10_2)"/>
<rect x="940" y="76" width="560" height="828" rx="36" fill="#0F1F33"/>
<rect x="88" y="96" width="708" height="360" rx="34" fill="white"/>
<rect x="88" y="492" width="328" height="318" rx="34" fill="#D61F26"/>
<rect x="450" y="492" width="346" height="318" rx="34" fill="#11161C"/>
<text x="132" y="186" fill="#D61F26" font-size="26" font-family="Arial, sans-serif" font-weight="700" letter-spacing="7">CUSTOM SPORTS APPAREL</text>
<text x="132" y="286" fill="#11161C" font-size="118" font-family="Arial, sans-serif" font-weight="700">NEW</text>
<text x="132" y="382" fill="#11161C" font-size="118" font-family="Arial, sans-serif" font-weight="700">SEASON</text>
<text x="132" y="432" fill="#4C5968" font-size="30" font-family="Arial, sans-serif">Uniforms, hoodies, and fanwear made for team orders.</text>
<text x="134" y="560" fill="white" font-size="26" font-family="Arial, sans-serif" font-weight="700" letter-spacing="6">FEATURED DROP</text>
<text x="134" y="646" fill="white" font-size="72" font-family="Arial, sans-serif" font-weight="700">Basketball</text>
<text x="134" y="716" fill="white" font-size="72" font-family="Arial, sans-serif" font-weight="700">uniform sets</text>
<text x="496" y="560" fill="#A8B4C3" font-size="26" font-family="Arial, sans-serif" font-weight="700" letter-spacing="6">ORDER FLOW</text>
<text x="496" y="646" fill="white" font-size="72" font-family="Arial, sans-serif" font-weight="700">Shop</text>
<text x="496" y="712" fill="white" font-size="72" font-family="Arial, sans-serif" font-weight="700">Add</text>
<text x="496" y="778" fill="white" font-size="72" font-family="Arial, sans-serif" font-weight="700">Checkout</text>
<g opacity="0.98">
<rect x="1112" y="238" width="170" height="282" rx="30" fill="#D61F26"/>
<rect x="1058" y="272" width="64" height="106" rx="20" transform="rotate(-18 1058 272)" fill="#E7EDF3"/>
<rect x="1272" y="272" width="64" height="106" rx="20" transform="rotate(18 1272 272)" fill="#E7EDF3"/>
<path d="M1144 500H1250V678H1144V500Z" fill="#E7EDF3"/>
<text x="1198" y="394" fill="white" font-size="112" font-family="Arial, sans-serif" font-weight="700" text-anchor="middle">24</text>
</g>
<g opacity="0.98">
<path d="M1174 180H1236L1276 214H1376L1414 180H1478L1510 328H1414V754H1238V328H1142L1174 180Z" fill="#13253D"/>
<path d="M1174 180H1236L1276 214H1376L1414 180H1478L1510 328H1414V754H1238V328H1142L1174 180Z" fill="url(#paint1_linear_10_2)" fill-opacity="0.55"/>
<path d="M1238 754H1316L1308 882H1244L1238 754Z" fill="#13253D"/>
<path d="M1336 754H1414L1406 882H1342L1336 754Z" fill="#13253D"/>
<text x="1328" y="462" fill="#F4F7FA" font-size="126" font-family="Arial, sans-serif" font-weight="700" text-anchor="middle">00</text>
<text x="1328" y="566" fill="#F4F7FA" font-size="40" font-family="Arial, sans-serif" font-weight="700" text-anchor="middle">TEAM</text>
</g>
<defs>
<linearGradient id="paint0_linear_10_2" x1="92" y1="76" x2="1534" y2="926" gradientUnits="userSpaceOnUse">
<stop stop-color="#FDFEFF"/>
<stop offset="1" stop-color="#E6EBF1"/>
</linearGradient>
<linearGradient id="paint1_linear_10_2" x1="1194" y1="210" x2="1460" y2="806" gradientUnits="userSpaceOnUse">
<stop stop-color="#D61F26"/>
<stop offset="1" stop-color="#243B56"/>
</linearGradient>
</defs>
</svg>
